Coordinates
version=1
nRows=7
nColumns=40
inDegrees=yes

Units are S.I. units (second, meters, Newtons, ...)
If the header above contains a line with 'inDegrees', this indicates whether rotational values are in degrees (yes) or radians (no).

endheader
time	pelvis_tilt	pelvis_list	pelvis_rotation	pelvis_tx	pelvis_ty	pelvis_tz	hip_flexion_r	hip_adduction_r	hip_rotation_r	knee_angle_r	knee_angle_r_beta	ankle_angle_r	subtalar_angle_r	mtp_angle_r	hip_flexion_l	hip_adduction_l	hip_rotation_l	knee_angle_l	knee_angle_l_beta	ankle_angle_l	subtalar_angle_l	mtp_angle_l	lumbar_extension	lumbar_bending	lumbar_rotation	arm_flex_r	arm_add_r	arm_rot_r	elbow_flex_r	pro_sup_r	wrist_flex_r	wrist_dev_r	arm_flex_l	arm_add_l	arm_rot_l	elbow_flex_l	pro_sup_l	wrist_flex_l	wrist_dev_l
      1.20000000	      6.48689042	      4.58766146	      2.55259515	     -0.31885970	      1.03696854	     -0.76580018	     -1.02944913	      0.20996677	     -6.25329523	      8.01892445	      0.13995663	     -4.43700033	      0.00000000	      0.00000000	     17.30524315	      4.30599273	      2.26250095	      7.13638364	      0.12455339	     -2.30605364	      0.00000000	      0.00000000	    -21.12675670	     -3.07088741	     -0.52127750	     67.91035806	    -16.13939597	     20.42275218	     52.29556423	     87.67586568	      0.00000000	      0.00000000	     70.38666273	     -8.33928690	     23.22982484	     45.13731812	     86.95705595	      0.00000000	      0.00000000
      1.20500000	      6.49570343	      4.61849851	      2.60904044	     -0.31924447	      1.03691815	     -0.76584290	     -0.94256271	      0.17247376	     -6.26503679	      8.17832882	      0.14273877	     -4.41366857	      0.00000000	      0.00000000	     17.52041764	      4.38457124	      2.09013596	      6.82429543	      0.11910642	     -2.28922051	      0.00000000	      0.00000000	    -21.17844968	     -3.07807186	     -0.53661527	     67.95838893	    -16.17685477	     20.38530735	     52.32127130	     87.66428336	      0.00000000	      0.00000000	     70.43082409	     -8.30371482	     23.32545907	     45.07454587	     86.95698530	      0.00000000	      0.00000000
      1.21000000	      6.50658526	      4.64219672	      2.64988769	     -0.31957575	      1.03686605	     -0.76584036	     -0.84073614	      0.13646373	     -6.36032678	      8.38717882	      0.14638389	     -4.27778116	      0.00000000	      0.00000000	     17.73407497	      4.44655128	      1.93728839	      6.52990317	      0.11396831	     -2.26300609	      0.00000000	      0.00000000	    -21.22725085	     -3.08276382	     -0.58708043	     68.00271605	    -16.19142115	     20.42046113	     52.32937898	     87.64174492	      0.00000000	      0.00000000	     70.45240182	     -8.29662329	     23.19301332	     45.05891584	     87.03235800	      0.00000000	      0.00000000
      1.21500000	      6.51693268	      4.66166077	      2.68925994	     -0.31993962	      1.03680361	     -0.76582814	     -0.73618146	      0.11147054	     -6.38949989	      8.59060822	      0.14993440	     -4.17852753	      0.00000000	      0.00000000	     17.96671921	      4.50658084	      1.81283639	      6.26380337	      0.10932399	     -2.24637197	      0.00000000	      0.00000000	    -21.28042425	     -3.08159750	     -0.62080334	     68.06184237	    -16.19821693	     20.42658166	     52.33009647	     87.64966164	      0.00000000	      0.00000000	     70.51425714	     -8.31447448	     23.24931622	     45.05385772	     86.97667454	      0.00000000	      0.00000000
      1.22000000	      6.53701436	      4.68078099	      2.72509853	     -0.32030099	      1.03675200	     -0.76584424	     -0.66887550	      0.08867627	     -6.42584419	      8.73287507	      0.15241742	     -4.13208687	      0.00000000	      0.00000000	     18.19143474	      4.57026862	      1.63463859	      6.02312306	      0.10512333	     -2.22522530	      0.00000000	      0.00000000	    -21.34329962	     -3.08248254	     -0.65923384	     68.11332125	    -16.21570228	     20.43095660	     52.34845915	     87.64717281	      0.00000000	      0.00000000	     70.58000411	     -8.32858274	     23.29026151	     45.03926219	     87.00504012	      0.00000000	      0.00000000
      1.22500000	      6.55540198	      4.71693787	      2.76139212	     -0.32066182	      1.03668671	     -0.76584773	     -0.58805159	      0.05281349	     -6.44292634	      8.90323833	      0.15539082	     -4.02623687	      0.00000000	      0.00000000	     18.41036716	      4.64460497	      1.47328903	      5.79391530	      0.10112290	     -2.23872072	      0.00000000	      0.00000000	    -21.40294558	     -3.09590288	     -0.67365873	     68.20937459	    -16.26324482	     20.52068134	     52.28486708	     87.63726305	      0.00000000	      0.00000000	     70.63506092	     -8.30748570	     23.31268376	     45.04916982	     87.02006796	      0.00000000	      0.00000000
      1.23000000	      6.58383920	      4.73864804	      2.81360515	     -0.32097027	      1.03665983	     -0.76586479	     -0.52585249	      0.02849842	     -6.51995850	      9.06647249	      0.15823980	     -3.96110108	      0.00000000	      0.00000000	     18.64223219	      4.71521631	      1.18078313	      5.60031563	      0.09774395	     -2.21147901	      0.00000000	      0.00000000	    -21.47020699	     -3.10229177	     -0.74544041	     68.20771460	    -16.21110214	     20.36313300	     52.33236490	     87.67048043	      0.00000000	      0.00000000	     70.71386427	     -8.35903315	     23.43009141	     45.00297830	     86.98171841	      0.00000000	      0.00000000
